<?xml version="1.0" encoding="UTF-8" standalone="no"?>
<!-- Created with Inkscape (http://www.inkscape.org/) -->

<svg
   xmlns:dc="http://purl.org/dc/elements/1.1/"
   xmlns:cc="http://creativecommons.org/ns#"
   xmlns:rdf="http://www.w3.org/1999/02/22-rdf-syntax-ns#"
   xmlns:svg="http://www.w3.org/2000/svg"
   xmlns="http://www.w3.org/2000/svg"
   xmlns:sodipodi="http://sodipodi.sourceforge.net/DTD/sodipodi-0.dtd"
   xmlns:inkscape="http://www.inkscape.org/namespaces/inkscape"
   version="1.1"
   id="svg2176"
   width="99.218979"
   height="286.8291">
  <metadata
     id="metadata2182">
    <rdf:RDF>
      <cc:Work
         rdf:about="">
        <dc:format>image/svg+xml</dc:format>
        <dc:type
           rdf:resource="http://purl.org/dc/dcmitype/StillImage" />
      </cc:Work>
    </rdf:RDF>
  </metadata>
  <defs
     id="defs2180">
    <linearGradient
       gradientUnits="userSpaceOnUse"
       gradientTransform="matrix(-1,0,0,1,903.47653,189.03451)"
       y2="660.42999"
       x2="313.79001"
       y1="660.66998"
       x1="313.79001"
       id="e1e32c93-0bc3-4bc5-85c6-efac924cbce5">
      <stop
         id="stop2"
         stop-opacity="0.25"
         stop-color="gray"
         offset="0" />
      <stop
         id="stop4"
         stop-opacity="0.12"
         stop-color="gray"
         offset="0.54" />
      <stop
         id="stop6"
         stop-opacity="0.1"
         stop-color="gray"
         offset="1" />
    </linearGradient>
  </defs>
  <sodipodi:namedview
     pagecolor="#ffffff"
     bordercolor="#666666"
     borderopacity="1"
     objecttolerance="10"
     gridtolerance="10"
     guidetolerance="10"
     inkscape:pageopacity="0"
     inkscape:pageshadow="2"
     inkscape:window-width="640"
     inkscape:window-height="480"
     id="namedview2178" />
  <inkscape:clipboard
     style="font-variant-east_asian:normal;opacity:0.1;vector-effect:none;fill:#000000;fill-opacity:1;stroke-width:1;stroke-linecap:butt;stroke-linejoin:miter;stroke-miterlimit:4;stroke-dasharray:none;stroke-dashoffset:0;stroke-opacity:1"
     min="252.47653,18.386397"
     max="351.69551,305.21549" />
  <g
     id="g2070"
     transform="translate(-252.47653,-189.03451)">
    <path
       d="M 347.5,429.38"
       transform="translate(-11.5,-202.87)"
       stroke-miterlimit="10"
       id="path37"
       inkscape:connector-curvature="0"
       style="fill:none;stroke:#f2f2f2;stroke-width:2;stroke-miterlimit:10" />
    <path
       d="M 333.5,428.38"
       transform="translate(-11.5,-202.87)"
       stroke-miterlimit="10"
       id="path39"
       inkscape:connector-curvature="0"
       style="fill:none;stroke:#f2f2f2;stroke-width:2;stroke-miterlimit:10" />
    <path
       d="m 337.43,660.43 v 0 l -0.44,0.24 z"
       transform="translate(-11.5,-202.87)"
       id="path135"
       inkscape:connector-curvature="0"
       style="fill:url(#e1e32c93-0bc3-4bc5-85c6-efac924cbce5)" />
    <path
       d="m 276,606.42 c -3.86,11.12 0.65,29.17 2.74,37.22 a 112,112 0 0 1 2.74,17.72 37.34,37.34 0 0 0 14.18,-0.32 l -3.38,-16.59 c 2.41,-9.83 0,-36.09 0,-36.09 0,0 5.47,-10.15 6,-25.62 0.47,-15.22 4.22,-20.14 4.34,-20.3 v 0 c 7.73,4 17.56,47.21 17.56,47.21 -0.81,10.47 0.16,26.58 3.38,35.28 a 43.76,43.76 0 0 1 2.42,17.24 5.31,5.31 0 0 0 4.38,0.84 c 4.6,-0.74 10.12,-4.71 10.12,-4.71 0,0 -1.77,-47 -3.06,-48.81 -1.29,-1.81 0,-11.92 0,-11.92 l -2.1,-16.44 c 0,0 0.32,-27.87 -2.74,-32.7 -2.64,-4.18 -3.25,-11.51 -3.37,-13.44 0,-0.3 0,-0.47 0,-0.47 l -4.66,-5.59 c 0,0 -45.11,-3.38 -48.5,0 -0.83,0.83 -1.34,2.72 -1.65,5.1 -0.93,7.31 0.14,19.23 0.14,19.23 0,0 1.35,8.86 3.29,17.88 a 39.27,39.27 0 0 1 0,16.44 49.15,49.15 0 0 1 -1.83,18.84 z"
       transform="translate(-11.5,-202.87)"
       id="path137"
       inkscape:connector-curvature="0"
       style="fill:#575a89" />
    <path
       d="m 278.78,677.07 c 2,2.66 13.86,1.53 15.87,0.7 1.23,-0.5 1.14,-2.82 0.81,-5.2 -0.21,-1.52 -0.52,-3.07 -0.65,-4.2 -0.32,-2.9 1,-8.78 1,-8.78 0,0 -2.66,2.82 -3.3,0 a 3.08,3.08 0 0 0 -2.3,-2.18 6,6 0 0 0 -4.18,0.26 c -2.1,0.9 -5.59,2.84 -5,5.46 0.88,3.7 -2.26,9 -2.26,9 a 4,4 0 0 0 0,5 z"
       transform="translate(-11.5,-202.87)"
       id="path139"
       inkscape:connector-curvature="0"
       style="fill:#cbceda" />
    <path
       d="m 278.78,677.07 c 2,2.66 13.86,1.53 15.87,0.7 1.23,-0.5 1.14,-2.82 0.81,-5.2 -1.27,0.59 -3.44,1.09 -7,0.75 a 21.39,21.39 0 0 0 -2.53,-0.08 57.55,57.55 0 0 1 -7.69,-0.15 3.84,3.84 0 0 0 0.54,3.98 z"
       transform="translate(-11.5,-202.87)"
       id="path141"
       inkscape:connector-curvature="0"
       style="opacity:0.1" />
    <path
       d="m 320.11,609.65 c -0.81,10.47 0.16,26.58 3.38,35.28 a 43.76,43.76 0 0 1 2.42,17.24 5.31,5.31 0 0 0 4.38,0.84 c -1,-6.79 -5.11,-36.07 -7.77,-59.2 a 96.89,96.89 0 0 0 -17.15,-44.47 l -2.82,3.1 c 7.73,4.03 17.56,47.21 17.56,47.21 z"
       transform="translate(-11.5,-202.87)"
       id="path143"
       inkscape:connector-curvature="0"
       style="opacity:0.1" />
    <path
       d="m 283.62,440.32 2,9.67 9.64,16.19 11.88,-5.07 c 0,0 16.15,-16.92 6,-19.34 a 8.77,8.77 0 0 1 -3.37,-1.5 7,7 0 0 1 -2.63,-5.83 17.84,17.84 0 0 1 1.65,-6.93 L 288,421 a 33.86,33.86 0 0 1 1.49,8.42 c 0.16,5.66 -1.95,8.45 -3.67,9.78 a 6.27,6.27 0 0 1 -2.2,1.12 z"
       transform="translate(-11.5,-202.87)"
       id="path145"
       inkscape:connector-curvature="0"
       style="fill:#fbbebe" />
    <path
       d="m 288,421 a 33.86,33.86 0 0 1 1.49,8.42 13.28,13.28 0 0 0 1.21,1.28 16.35,16.35 0 0 0 11.3,4.55 16.13,16.13 0 0 0 5.08,-0.81 17.84,17.84 0 0 1 1.65,-6.93 z"
       transform="translate(-11.5,-202.87)"
       id="path147"
       inkscape:connector-curvature="0"
       style="opacity:0.1" />
    <path
       d="M 285.58,418.33 A 16.44,16.44 0 1 0 302,401.9 16.35,16.35 0 0 0 285.58,418.33 Z"
       transform="translate(-11.5,-202.87)"
       id="path149"
       inkscape:connector-curvature="0"
       style="fill:#fbbebe" />
    <path
       d="m 283.62,440.32 2,9.67 9.64,16.19 11.88,-5.07 c 0,0 16.15,-16.92 6,-19.34 a 8.77,8.77 0 0 1 -3.37,-1.5 c 1.83,5 -5.73,15.52 -5.73,15.52 -0.88,1.29 -2.9,0.48 -2.9,0.48 -4.88,-0.74 -13.85,-14.75 -15.31,-17.08 a 6.27,6.27 0 0 1 -2.21,1.13 z"
       transform="translate(-11.5,-202.87)"
       id="path151"
       inkscape:connector-curvature="0"
       style="opacity:0.1" />
    <path
       d="m 274.31,534 c 2.86,0.65 18.69,4.16 24.69,3.28 6.61,-1 19.45,-1.61 19.45,-1.61 0,0 8.18,0.44 10.69,-0.71 0,-0.3 0,-0.47 0,-0.47 l -4.66,-5.59 c 0,0 -45.11,-3.38 -48.5,0 -0.85,0.86 -1.36,2.75 -1.67,5.1 z"
       transform="translate(-11.5,-202.87)"
       id="path153"
       inkscape:connector-curvature="0"
       style="opacity:0.1" />
    <path
       d="m 304,456.27 c 0,0 8.5,-11.77 5.29,-16.36 l 14.36,5.89 c 0,0 8.64,-1.05 11.76,11.85 a 22.52,22.52 0 0 1 0.54,6.55 19.47,19.47 0 0 0 2.36,9.79 c 3.55,7.09 2.74,23.36 -4.51,25 -7.25,1.64 -9.83,0.8 -9.83,0.8 0,0 1,29.48 5.16,32.87 4.16,3.39 -10.68,2.58 -10.68,2.58 0,0 -12.84,0.64 -19.45,1.61 -6.61,0.97 -25.13,-3.39 -25.13,-3.39 0,0 2.74,-12.4 3.7,-20.3 0.96,-7.9 3.23,-24.7 3.23,-24.7 L 264.36,466.2 c 0,0 -2.9,-13.45 7.25,-19.41 10.15,-5.96 14,-7.43 14,-7.43 0,0 10.2,16.61 15.52,17.42 -0.03,-0.02 1.99,0.79 2.87,-0.51 z"
       id="path155"
       transform="translate(-11.5,-202.87)"
       inkscape:connector-curvature="0"
       style="fill:#3f3d56" />
    <path
       d="m 322.85,460.94 c 0,0 0.16,5.32 -0.81,7.42 -0.97,2.1 -4.51,13.69 -4.51,13.69 h 8.05 c 0,0 -4.35,-4.67 -4,-6.93 0.35,-2.26 1.27,-14.18 1.27,-14.18 z"
       transform="translate(-11.5,-202.87)"
       id="path157"
       inkscape:connector-curvature="0"
       style="opacity:0.1" />
    <path
       d="m 299,501.06 c 0,0 17.79,-4.35 19.45,-8.06 1.66,-3.71 6.23,-12 6.23,-12 l -1.88,-2.53 -8.65,6.79 c 0,0 -10.31,8.22 -15.15,9 -4.84,0.78 0,6.8 0,6.8 z"
       transform="translate(-11.5,-202.87)"
       id="path159"
       inkscape:connector-curvature="0"
       style="fill:#fbbebe" />
    <path
       d="m 299,501.06 c 0,0 17.79,-4.35 19.45,-8.06 1.66,-3.71 6.23,-12 6.23,-12 l -1.88,-2.53 -8.65,6.79 c 0,0 -10.31,8.22 -15.15,9 -4.84,0.78 0,6.8 0,6.8 z"
       transform="translate(-11.5,-202.87)"
       id="path161"
       inkscape:connector-curvature="0"
       style="opacity:0.05" />
    <path
       d="m 283.62,480.12 v 9.65 h 1.55 a 45.12,45.12 0 0 1 21.9,5.67 l 2.91,1.61 0.78,0.44 5,-11.25 -4.67,-4.19 h -0.24 c -1.15,0.11 -6.09,0.53 -8.18,-0.18 -2.09,-0.71 -4.46,-2.82 -10.33,-1.32 -2.88,0.74 -5.35,4 -8.15,3 z"
       transform="translate(-11.5,-202.87)"
       id="path163"
       inkscape:connector-curvature="0"
       style="fill:#fbbebe" />
    <path
       d="m 268.07,462.56 -3.22,3.62 V 475 c 0,0 2.74,27.71 11.44,30.77 8.7,3.06 24.23,-1.77 24.23,-1.77 0,0 4,-10.63 2.13,-11.28 -1.87,-0.65 -16.58,-4.53 -16.58,-4.53 0,0 0.2,-16.25 -3,-21.08 0,0 2.1,-15.15 -5.15,-15.47 -7.25,-0.32 -9.85,10.92 -9.85,10.92 z"
       transform="translate(-11.5,-202.87)"
       id="path165"
       inkscape:connector-curvature="0"
       style="opacity:0.1" />
    <path
       d="m 267.59,462.56 -3.23,3.62 V 475 c 0,0 2.74,27.71 11.44,30.77 8.7,3.06 24.2,-1.77 24.2,-1.77 0,0 4,-10.63 2.14,-11.28 -1.86,-0.65 -16.59,-4.53 -16.59,-4.53 0,0 0.21,-16.25 -3,-21.08 0,0 2.09,-15.15 -5.16,-15.47 -7.25,-0.32 -9.8,10.92 -9.8,10.92 z"
       transform="translate(-11.5,-202.87)"
       id="path167"
       inkscape:connector-curvature="0"
       style="fill:#3f3d56" />
    <path
       d="m 290.09,425.31 a 6.37,6.37 0 0 1 0.37,-3.13 2.43,2.43 0 0 1 2.54,-1.48 c 1.38,0.32 2,2.12 3.33,2.55 a 2.63,2.63 0 0 0 2.92,-1.51 7.58,7.58 0 0 0 0.56,-3.51 c 0,-1.34 0,-2.69 0,-4 0,-1.31 0.05,-3.05 0.95,-4.2 1.13,-1.43 3.77,-2.06 5.53,-2 a 4.63,4.63 0 0 1 3.15,1.27 4.1,4.1 0 0 0 3.32,1.18 2.88,2.88 0 0 0 2.32,-2 0.09,0.09 0 0 1 0,-0.05 16.43,16.43 0 1 0 -24.44,21.81 42.26,42.26 0 0 1 -0.55,-4.93 z"
       transform="translate(-11.5,-202.87)"
       id="path169"
       inkscape:connector-curvature="0"
       style="opacity:0.1" />
    <path
       d="m 312.78,410 a 2.9,2.9 0 0 0 2.32,-2 c 0.13,-0.52 0.1,-1.08 0.25,-1.59 0.38,-1.27 1.73,-1.93 2.63,-2.89 1.82,-1.93 1.7,-5.1 0.41,-7.41 -1,-1.87 -3,-3.44 -5.15,-3.08 -1.3,0.23 -2.43,1.16 -3.75,1.24 a 7.84,7.84 0 0 1 -3.59,-1.16 13.53,13.53 0 0 0 -8.91,-0.79 5.11,5.11 0 0 0 -2.45,1.24 20.09,20.09 0 0 0 -1.3,1.83 c -1.51,1.92 -4.2,2.29 -6.59,2.72 -2.39,0.43 -5.1,1.38 -5.89,3.69 -0.52,1.52 0,3.18 0.28,4.77 a 1.37,1.37 0 0 1 -0.06,1 c -0.37,0.62 -1.31,0.36 -2,0.51 -1.35,0.28 -1.7,2 -1.75,3.42 -0.06,1.59 -0.1,3.18 -0.13,4.77 a 4.67,4.67 0 0 0 1.51,4 l 5.32,6.39 c 2.36,2.84 4.86,6.14 4.39,9.8 1.11,0.5 2.44,-0.47 2.81,-1.64 a 7.24,7.24 0 0 0 -0.18,-3.63 44.22,44.22 0 0 1 -0.84,-6.29 6.37,6.37 0 0 1 0.37,-3.13 2.42,2.42 0 0 1 2.55,-1.48 c 1.38,0.32 2,2.11 3.33,2.55 a 2.64,2.64 0 0 0 2.92,-1.51 7.58,7.58 0 0 0 0.56,-3.51 v -4 c 0,-1.46 0.05,-3 0.95,-4.2 1.13,-1.43 3.77,-2.05 5.53,-2 a 4.73,4.73 0 0 1 3.15,1.27 4.07,4.07 0 0 0 3.31,1.11 z"
       transform="translate(-11.5,-202.87)"
       id="path171"
       inkscape:connector-curvature="0"
       style="fill:#3f3d56" />
    <path
       d="m 309.07,460.54 -5,20.73 c 0,0 -4.02,-0.03 5,-20.73 z"
       transform="translate(-11.5,-202.87)"
       id="path173"
       inkscape:connector-curvature="0"
       style="opacity:0.1" />
    <path
       d="m 291.83,457.08 c 0,0 6.61,10.82 4,22 l -1.23,0.09 c 0,0 2.23,-5.17 -2.77,-22.09 z"
       transform="translate(-11.5,-202.87)"
       id="path175"
       inkscape:connector-curvature="0"
       style="opacity:0.1" />
    <path
       d="m 287.64,518.3 c 0,0 -8.11,-2.68 -8.7,3.54 0,0 1.53,-4.27 8.7,-3.54 z"
       transform="translate(-11.5,-202.87)"
       id="path177"
       inkscape:connector-curvature="0"
       style="opacity:0.1" />
    <path
       d="m 311.09,482.53 c 0,0 1.61,11.28 -1.29,15.79 a 35.21,35.21 0 0 0 14.2,1.93 l 1,-17.72 z"
       transform="translate(-11.5,-202.87)"
       id="path179"
       inkscape:connector-curvature="0"
       style="opacity:0.1" />
    <path
       d="m 310,497.05 0.78,0.44 5,-11.25 -4.67,-4.19 h -0.25 v 0 c 0.06,0.54 1.36,10.23 -0.86,15 z"
       transform="translate(-11.5,-202.87)"
       id="path181"
       inkscape:connector-curvature="0"
       style="opacity:0.1" />
    <path
       d="m 311.09,482.05 c 0,0 1.61,11.28 -1.29,15.79 a 35.43,35.43 0 0 0 14.2,1.93 l 5.64,-17.72 z"
       transform="translate(-11.5,-202.87)"
       id="path183"
       inkscape:connector-curvature="0"
       style="fill:#3f3d56" />
    <path
       d="m 325,670.21 a 3.64,3.64 0 0 0 3.13,3.19 c 4.37,0.66 14.91,2.32 17.57,3.59 3.39,1.61 16.76,0.48 17.4,-1.13 a 2.53,2.53 0 0 0 -0.23,-1.93 5.13,5.13 0 0 0 -2.16,-2.33 6.5,6.5 0 0 0 -1,-0.43 c -2.52,-0.84 -7.27,-2.62 -8.56,-4.49 0,0 -5.93,-5.19 -7.62,-8 a 3.87,3.87 0 0 0 -3.1,-1.93 c -1.41,-0.06 -3,0.65 -3.62,3.74 0,0 -7.73,4.41 -9.82,0.54 0,0 -0.33,5.94 -1.61,7.57 v 0 a 2.17,2.17 0 0 0 -0.38,1.61 z"
       transform="translate(-11.5,-202.87)"
       id="path185"
       inkscape:connector-curvature="0"
       style="fill:#cbceda" />
    <path
       d="m 325,670.21 a 3.64,3.64 0 0 0 3.13,3.19 c 4.37,0.66 14.91,2.32 17.57,3.59 3.39,1.61 16.76,0.48 17.4,-1.13 a 2.53,2.53 0 0 0 -0.23,-1.93 5.13,5.13 0 0 0 -2.16,-2.33 c -2.18,1.45 -7,2.87 -17.66,1.2 -10.16,-1.58 -15.19,-3.14 -17.64,-4.19 v 0 a 2.17,2.17 0 0 0 -0.41,1.6 z"
       transform="translate(-11.5,-202.87)"
       id="path187"
       inkscape:connector-curvature="0"
       style="opacity:0.1" />
    <g
       id="g197"
       style="opacity:0.1">
      <path
         d="m 281.06,406.76 c 0,0 0,-0.05 0,-0.07 a 15.41,15.41 0 0 1 -0.49,-3.66 22.68,22.68 0 0 0 0.43,2.97 1.81,1.81 0 0 1 0.06,0.76 z"
         transform="translate(-11.5,-202.87)"
         id="path189"
         inkscape:connector-curvature="0" />
      <path
         d="m 290.46,421.84 a 4.88,4.88 0 0 0 -0.4,1.85 5.57,5.57 0 0 1 0.4,-2.57 2.43,2.43 0 0 1 2.55,-1.48 c 1.38,0.32 2,2.12 3.33,2.55 a 2.63,2.63 0 0 0 2.92,-1.51 7.56,7.56 0 0 0 0.56,-3.51 c 0,-1.34 0,-2.69 0,-4 0,-1.31 0.05,-3.05 0.95,-4.2 1.13,-1.43 3.77,-2.06 5.53,-2 a 4.63,4.63 0 0 1 3.15,1.27 4.1,4.1 0 0 0 3.32,1.18 2.87,2.87 0 0 0 2.32,-2 c 0.13,-0.52 0.1,-1.08 0.25,-1.59 0.38,-1.27 1.73,-1.93 2.63,-2.89 a 5.2,5.2 0 0 0 1.36,-3.4 5.46,5.46 0 0 1 -1.36,4.13 c -0.9,1 -2.25,1.62 -2.63,2.88 -0.15,0.52 -0.12,1.07 -0.25,1.59 a 2.88,2.88 0 0 1 -2.32,2 4.07,4.07 0 0 1 -3.32,-1.19 4.68,4.68 0 0 0 -3.15,-1.27 c -1.76,-0.06 -4.4,0.57 -5.53,2 -0.9,1.15 -0.94,2.74 -0.95,4.2 -0.01,1.46 0,2.69 0,4 a 7.54,7.54 0 0 1 -0.56,3.5 2.61,2.61 0 0 1 -2.92,1.51 c -1.35,-0.43 -1.95,-2.22 -3.33,-2.54 a 2.41,2.41 0 0 0 -2.55,1.49 z"
         transform="translate(-11.5,-202.87)"
         id="path191"
         inkscape:connector-curvature="0" />
      <path
         d="m 277.22,417.41 a 6.29,6.29 0 0 0 1.37,2.22 l 5.32,6.39 c 2.24,2.69 4.61,5.8 4.43,9.24 -0.16,-3.15 -2.35,-6 -4.43,-8.52 l -5.32,-6.39 a 4.67,4.67 0 0 1 -1.51,-4 4.07,4.07 0 0 0 0.14,1.06 z"
         transform="translate(-11.5,-202.87)"
         id="path193"
         inkscape:connector-curvature="0" />
      <path
         d="m 291.11,434.18 a 3.7,3.7 0 0 0 0.16,-0.87 4.47,4.47 0 0 1 -0.16,1.59 c -0.37,1.17 -1.69,2.14 -2.81,1.63 a 5.49,5.49 0 0 0 0.05,-0.7 2.29,2.29 0 0 0 2.76,-1.65 z"
         transform="translate(-11.5,-202.87)"
         id="path195"
         inkscape:connector-curvature="0" />
    </g>
    <path
       d="m 344.64,660.15 c 0,0 -1.68,3 -7.78,0.35"
       transform="translate(-11.5,-202.87)"
       id="path199"
       inkscape:connector-curvature="0"
       style="opacity:0.1" />
    <path
       d="m 293.05,660.86 c 0,0 -5.26,6.2 -11.89,2"
       transform="translate(-11.5,-202.87)"
       id="path201"
       inkscape:connector-curvature="0"
       style="opacity:0.1" />
    <path
       d="m 277.74,587.58 c 0,0 3.71,2.32 3.84,3.65 0.13,1.33 -1.92,-1 -1.92,-1 z"
       transform="translate(-11.5,-202.87)"
       id="path203"
       inkscape:connector-curvature="0"
       style="opacity:0.1" />
    <path
       d="m 276.27,605.39 a 7.74,7.74 0 0 0 4.58,1.79 c 2.78,0.12 2.55,3.74 0.73,2.66 a 45.56,45.56 0 0 1 -5.31,-4.45 z"
       transform="translate(-11.5,-202.87)"
       id="path205"
       inkscape:connector-curvature="0"
       style="opacity:0.1" />
    <path
       d="m 275.56,607.71 c 0,0 1.79,8.77 3.24,7.08"
       transform="translate(-11.5,-202.87)"
       id="path207"
       inkscape:connector-curvature="0"
       style="opacity:0.1" />
  </g>
</svg>
